<svg xmlns="http://www.w3.org/2000/svg" xmlns:xlink="http://www.w3.org/1999/xlink" viewBox="0 0 226.95 200.17"><defs><style>.cls-1{fill:url(#Dégradé_sans_nom_4);}.cls-2{fill:url(#Dégradé_sans_nom_4-2);}.cls-3{fill:#ff5005;}</style><linearGradient id="Dégradé_sans_nom_4" x1="35.01" y1="226.89" x2="147.35" y2="226.89" gradientTransform="translate(218.6 271.71) rotate(180)" gradientUnits="userSpaceOnUse"><stop offset="0" stop-color="#232323"/><stop offset="1" stop-color="#3d3d3d"/></linearGradient><linearGradient id="Dégradé_sans_nom_4-2" x1="115.46" y1="195.86" x2="218.6" y2="195.86" xlink:href="#Dégradé_sans_nom_4"/></defs><g id="Calque_2" data-name="Calque 2"><g id="Calque_1-2" data-name="Calque 1"><path class="cls-1" d="M161.86,0H137.09c-3.43,0-6.85,0-10.27,0a25.46,25.46,0,0,0-4.53.43c-14.43,2.75-22.24,19.43-14.2,32.1,4.72,7.46,9.33,15,14,22.48l0,0a4.14,4.14,0,0,0,6.07,1.12,77.56,77.56,0,0,0,7.46-6.66,5.42,5.42,0,0,0,.76-6.58l0,0c-3.27-5.48-6.59-10.94-9.81-16.48-1.86-3.21.13-6.53,3.85-6.55h27.19A4.6,4.6,0,0,1,161,21.15c1.44,1.49,1.58,3.51.22,5.63-1.76,2.73-3.57,5.43-5.46,8.08a134.93,134.93,0,0,1-25.47,27.46h0a8.46,8.46,0,0,1-12.49-2.26L92.94,18.91l-3-5a10,10,0,0,0-17.12,0l-.09.15a10,10,0,0,0,0,10.37l9.15,15.15L100.23,70l8,13.2A13.29,13.29,0,0,0,123.63,89h0l1-.34.14,0a51.4,51.4,0,0,0,7.84-3.9,95.34,95.34,0,0,0,14.73-10.94h0q5.1-4.8,9.84-9.9s0,0,0,0A203.74,203.74,0,0,0,178.8,36.26a27,27,0,0,0,4.66-11.95A21.89,21.89,0,0,0,161.86,0Z"/><path class="cls-2" d="M2.55,95.7,14.27,73.88c1.62-3,3.23-6,4.87-9a26.72,26.72,0,0,1,2.52-3.78c9.25-11.42,27.64-10.41,35,2.67C61,71.4,65.46,79,69.85,86.69l0,0A4.16,4.16,0,0,1,68,92.62,78.88,78.88,0,0,1,58.59,96a5.42,5.42,0,0,1-6.16-2.43l0,0c-3.29-5.48-6.53-11-9.89-16.44-2-3.16-5.81-3-7.59.29q-6.43,12-12.87,24a4.62,4.62,0,0,0-.45,3.57c.63,2,2.34,3.06,4.86,2.86,3.22-.26,6.47-.58,9.69-1A135.07,135.07,0,0,0,72.4,97.35h0a8.47,8.47,0,0,0,3.92-12.09L51.81,43.92l-3-5.05A10,10,0,0,1,56.87,23.8h.2a10,10,0,0,1,9.15,4.89l9,15.22L93.38,74.51l7.92,13.36A13.14,13.14,0,0,1,99.13,104l-.08.08-.79.75-.1.1A52.8,52.8,0,0,1,91,110a95.72,95.72,0,0,1-16.6,7.81h0c-4.43,1.49-8.89,2.81-13.38,4,0,0,0,0,0,0a204.32,204.32,0,0,1-34.48,6,27.09,27.09,0,0,1-12.73-1.55A21.89,21.89,0,0,1,2.55,95.7Z"/><path class="cls-3" d="M65.09,200.17H89.86c3.43,0,6.85,0,10.28,0a26.41,26.41,0,0,0,4.52-.43c14.43-2.75,22.25-19.44,14.2-32.11-4.72-7.45-9.33-15-14-22.48l0,0A4.15,4.15,0,0,0,98.76,144a77.66,77.66,0,0,0-7.46,6.67,5.42,5.42,0,0,0-.76,6.58l0,0c3.27,5.49,6.59,10.95,9.81,16.48,1.86,3.22-.13,6.54-3.85,6.55-9.06,0-18.13,0-27.19,0A4.65,4.65,0,0,1,66,179c-1.44-1.48-1.58-3.51-.21-5.63,1.75-2.72,3.56-5.43,5.45-8.07a134.67,134.67,0,0,1,25.47-27.46l.07-.07A8.38,8.38,0,0,1,109.12,140L134,181.25l3,5a10,10,0,0,0,17.12,0l.09-.14a10,10,0,0,0,0-10.37l-9.15-15.15-18.39-30.46-8-13.3a13.16,13.16,0,0,0-15.28-5.72l-.1,0c-.34.11-.68.21-1,.34l-.14,0a52,52,0,0,0-7.84,3.91,94.51,94.51,0,0,0-14.73,10.93l0,0q-5.1,4.8-9.84,9.9s0,0,0,0a203.74,203.74,0,0,0-21.56,27.57,27,27,0,0,0-4.66,12A21.9,21.9,0,0,0,65.09,200.17Z"/><path class="cls-3" d="M224.4,104.46l-11.72,21.83c-1.62,3-3.23,6-4.87,9a25.89,25.89,0,0,1-2.52,3.78c-9.25,11.42-27.64,10.41-35-2.66-4.34-7.69-8.8-15.32-13.19-23l0,0a4.16,4.16,0,0,1,1.88-5.89,78.94,78.94,0,0,1,9.4-3.42,5.43,5.43,0,0,1,6.16,2.44l0,0c3.29,5.49,6.53,11,9.89,16.44,1.95,3.16,5.81,3,7.59-.29q6.43-12,12.87-24a4.62,4.62,0,0,0,.45-3.57c-.62-2-2.34-3-4.86-2.85-3.22.26-6.47.58-9.69,1a134.71,134.71,0,0,0-36.24,9.45h0a8.46,8.46,0,0,0-3.92,12.08l24.51,41.34,3,5a10,10,0,0,1-8.07,15.1h-.22a9.92,9.92,0,0,1-9.07-4.85l-9-15.26-18.14-30.61L125.7,112.4a13.29,13.29,0,0,1,2.2-16.34h0c.26-.25.51-.5.79-.75l.11-.1a51.36,51.36,0,0,1,7.14-5.06,95,95,0,0,1,16.6-7.81h0c4.43-1.48,8.89-2.8,13.38-4h0a203.3,203.3,0,0,1,34.48-6,27.08,27.08,0,0,1,12.73,1.54A21.9,21.9,0,0,1,224.4,104.46Z"/></g></g></svg>